<svg xmlns="http://www.w3.org/2000/svg" xmlns:xlink="http://www.w3.org/1999/xlink" width="500" zoomAndPan="magnify" viewBox="0 0 375 374.999991" height="500" preserveAspectRatio="xMidYMid meet" version="1.0"><defs><g/><clipPath id="3b7287c7ff"><path d="M 147 172 L 153 172 L 153 212.929688 L 147 212.929688 Z M 147 172 " clip-rule="nonzero"/></clipPath><clipPath id="e663a073f2"><path d="M 145.148438 161.929688 L 155.648438 161.929688 L 155.648438 175 L 145.148438 175 Z M 145.148438 161.929688 " clip-rule="nonzero"/></clipPath><clipPath id="f7ca35f216"><path d="M 143 142 L 157 142 L 157 160 L 143 160 Z M 143 142 " clip-rule="nonzero"/></clipPath><clipPath id="8901de5ca1"><path d="M 143.03125 142.710938 L 155.742188 141.691406 L 157.179688 159.632812 L 144.472656 160.652344 Z M 143.03125 142.710938 " clip-rule="nonzero"/></clipPath><clipPath id="3175e4f87e"><path d="M 143.03125 142.710938 L 155.742188 141.691406 L 157.179688 159.632812 L 144.472656 160.652344 Z M 143.03125 142.710938 " clip-rule="nonzero"/></clipPath><clipPath id="c3abc077e9"><path d="M 143.03125 142.710938 L 155.742188 141.691406 L 157.179688 159.632812 L 144.472656 160.652344 Z M 143.03125 142.710938 " clip-rule="nonzero"/></clipPath><clipPath id="39a205a383"><path d="M 146 148 L 155 148 L 155 160 L 146 160 Z M 146 148 " clip-rule="nonzero"/></clipPath><clipPath id="84eb9cc49c"><path d="M 143.03125 142.710938 L 155.742188 141.691406 L 157.179688 159.632812 L 144.472656 160.652344 Z M 143.03125 142.710938 " clip-rule="nonzero"/></clipPath><clipPath id="83bfb06cc1"><path d="M 143.03125 142.710938 L 155.742188 141.691406 L 157.179688 159.632812 L 144.472656 160.652344 Z M 143.03125 142.710938 " clip-rule="nonzero"/></clipPath><clipPath id="571b0707a4"><path d="M 143.03125 142.710938 L 155.742188 141.691406 L 157.179688 159.632812 L 144.472656 160.652344 Z M 143.03125 142.710938 " clip-rule="nonzero"/></clipPath><clipPath id="990d164331"><path d="M 148 154 L 153 154 L 153 160 L 148 160 Z M 148 154 " clip-rule="nonzero"/></clipPath><clipPath id="69c2a1f664"><path d="M 143.03125 142.710938 L 155.742188 141.691406 L 157.179688 159.632812 L 144.472656 160.652344 Z M 143.03125 142.710938 " clip-rule="nonzero"/></clipPath><clipPath id="54f27b6283"><path d="M 143.03125 142.710938 L 155.742188 141.691406 L 157.179688 159.632812 L 144.472656 160.652344 Z M 143.03125 142.710938 " clip-rule="nonzero"/></clipPath><clipPath id="6d5857dde2"><path d="M 143.03125 142.710938 L 155.742188 141.691406 L 157.179688 159.632812 L 144.472656 160.652344 Z M 143.03125 142.710938 " clip-rule="nonzero"/></clipPath></defs><g fill="#008299" fill-opacity="1"><g transform="translate(40.55824, 211.705592)"><g><path d="M 28.152344 0.691406 C 39.742188 0.691406 52.578125 -6.898438 52.578125 -23.941406 C 52.578125 -40.847656 39.8125 -48.851562 28.152344 -48.851562 C 13.523438 -48.851562 3.589844 -38.363281 3.589844 -24.21875 C 3.589844 -7.105469 16.421875 0.691406 28.152344 0.691406 Z M 9.109375 -28.222656 C 8.695312 -39.46875 14.835938 -47.265625 25.324219 -47.265625 C 37.675781 -47.265625 46.714844 -33.808594 47.195312 -19.390625 C 47.539062 -9.039062 42.089844 -1.035156 31.050781 -1.035156 C 18.699219 -1.035156 9.589844 -14.351562 9.109375 -28.222656 Z M 9.109375 -28.222656 "/></g></g></g><g fill="#008299" fill-opacity="1"><g transform="translate(96.65524, 211.705592)"><g><path d="M 39.949219 0.550781 L 40.847656 0.550781 L 40.847656 -39.535156 C 40.847656 -45.195312 41.46875 -46.78125 43.609375 -47.402344 L 43.609375 -48.300781 L 34.914062 -48.300781 L 34.914062 -47.402344 C 38.019531 -46.574219 39.675781 -44.644531 39.675781 -36.777344 L 39.675781 -9.246094 L 9.523438 -48.300781 L 2.761719 -48.300781 L 2.761719 -47.402344 C 5.519531 -46.78125 6.347656 -45.195312 6.347656 -39.535156 L 6.347656 -8.761719 C 6.347656 -3.105469 5.65625 -1.519531 3.589844 -0.898438 L 3.589844 0 L 12.214844 0 L 12.214844 -0.898438 C 9.109375 -1.726562 7.453125 -3.65625 7.453125 -11.523438 L 7.453125 -41.746094 Z M 39.949219 0.550781 "/></g></g></g><g clip-path="url(#3b7287c7ff)"><path fill="#e8bf61" d="M 151.734375 173.621094 L 152.894531 175.039062 L 152.894531 212.929688 L 147.894531 212.929688 L 147.894531 175.039062 L 149.050781 173.621094 C 149.742188 172.78125 151.046875 172.78125 151.734375 173.621094 " fill-opacity="1" fill-rule="nonzero"/></g><g clip-path="url(#e663a073f2)"><path fill="#ed1c24" d="M 155.636719 167.050781 C 155.636719 169.007812 154.511719 172.828125 152.863281 174.996094 L 151.734375 173.621094 C 151.089844 172.832031 149.894531 172.785156 149.179688 173.480469 C 149.136719 173.527344 149.09375 173.570312 149.050781 173.621094 L 147.925781 174.996094 C 146.277344 172.828125 145.152344 169.007812 145.152344 167.050781 C 145.152344 164.628906 146.871094 162.601562 149.179688 162.066406 C 149.570312 161.976562 149.976562 161.929688 150.394531 161.929688 C 153.289062 161.929688 155.636719 164.222656 155.636719 167.050781 " fill-opacity="1" fill-rule="nonzero"/></g><g fill="#008299" fill-opacity="1"><g transform="translate(159.375344, 211.705592)"><g><path d="M 38.640625 0.484375 C 40.019531 0.484375 41.8125 0.34375 42.847656 0 L 42.847656 -0.828125 C 42.503906 -0.757812 42.160156 -0.757812 41.746094 -0.757812 C 39.398438 -0.757812 38.019531 -3.035156 34.707031 -11.316406 C 31.394531 -19.804688 30.085938 -24.011719 21.597656 -25.117188 C 30.566406 -26.152344 35.257812 -31.050781 35.257812 -37.535156 C 35.257812 -43.675781 31.117188 -48.300781 17.113281 -48.300781 L 3.519531 -48.300781 L 3.519531 -47.402344 C 5.65625 -46.78125 6.277344 -45.195312 6.277344 -39.535156 L 6.277344 -8.761719 C 6.277344 -3.105469 5.65625 -1.519531 3.519531 -0.898438 L 3.519531 0 L 14.695312 0 L 14.695312 -0.898438 C 12.558594 -1.519531 11.9375 -3.105469 11.9375 -8.761719 L 11.9375 -24.910156 L 16.351562 -24.910156 C 24.632812 -24.910156 25.183594 -20.078125 29.1875 -10.558594 C 32.222656 -3.382812 33.328125 0.484375 38.640625 0.484375 Z M 11.9375 -25.945312 L 11.9375 -47.128906 C 13.039062 -47.195312 14.144531 -47.265625 15.179688 -47.265625 C 25.390625 -47.265625 29.394531 -42.089844 29.394531 -35.949219 C 29.394531 -30.085938 25.667969 -25.945312 17.734375 -25.945312 Z M 11.9375 -25.945312 "/></g></g><g transform="translate(201.603344, 211.705592)"><g><path d="M 3.519531 0 L 17.59375 0 C 34.363281 0 40.15625 -8.140625 40.019531 -15.871094 C 39.949219 -22.632812 34.984375 -28.222656 23.734375 -28.773438 C 31.601562 -30.222656 34.636719 -34.5 34.636719 -39.191406 C 34.636719 -44.78125 30.289062 -48.300781 19.664062 -48.300781 L 3.519531 -48.300781 L 3.519531 -47.402344 C 5.589844 -46.78125 6.277344 -45.195312 6.277344 -39.535156 L 6.277344 -8.761719 C 6.277344 -3.105469 5.589844 -1.519531 3.519531 -0.898438 Z M 11.9375 -7.039062 L 11.9375 -27.875 L 18.976562 -27.875 C 29.324219 -27.875 33.742188 -22.078125 33.742188 -14.144531 C 33.742188 -6.484375 29.464844 -1.035156 18.214844 -1.035156 L 15.523438 -1.035156 C 12.558594 -1.035156 11.9375 -2.070312 11.9375 -7.039062 Z M 11.9375 -28.910156 L 11.9375 -47.265625 L 17.179688 -47.265625 C 24.289062 -47.265625 28.359375 -43.675781 28.359375 -37.949219 C 28.359375 -32.914062 25.183594 -28.910156 18.355469 -28.910156 Z M 11.9375 -28.910156 "/></g></g><g transform="translate(243.831343, 211.705592)"><g><path d="M -1.171875 0 L 6.625 0 L 6.625 -0.898438 C 4.277344 -1.378906 4.003906 -3.65625 5.796875 -8.140625 L 9.867188 -18.214844 L 29.324219 -18.214844 L 33.535156 -8.074219 C 35.742188 -2.898438 36.292969 -1.519531 34.15625 -0.898438 L 34.15625 0 L 44.851562 0 L 44.851562 -0.898438 C 43.402344 -1.519531 41.746094 -2.898438 39.605469 -8.074219 L 22.632812 -48.851562 L 17.457031 -46.507812 L 18.078125 -45.058594 C 18.628906 -43.953125 18.699219 -43.054688 18.214844 -41.8125 L 4.621094 -8.140625 C 2.484375 -2.898438 0.757812 -1.519531 -1.171875 -0.898438 Z M 10.28125 -19.25 L 19.457031 -41.953125 L 28.910156 -19.25 Z M 10.28125 -19.25 "/></g></g><g transform="translate(288.060342, 211.705592)"><g><path d="M 39.949219 0.550781 L 40.847656 0.550781 L 40.847656 -39.535156 C 40.847656 -45.195312 41.46875 -46.78125 43.609375 -47.402344 L 43.609375 -48.300781 L 34.914062 -48.300781 L 34.914062 -47.402344 C 38.019531 -46.574219 39.675781 -44.644531 39.675781 -36.777344 L 39.675781 -9.246094 L 9.523438 -48.300781 L 2.761719 -48.300781 L 2.761719 -47.402344 C 5.519531 -46.78125 6.347656 -45.195312 6.347656 -39.535156 L 6.347656 -8.761719 C 6.347656 -3.105469 5.65625 -1.519531 3.589844 -0.898438 L 3.589844 0 L 12.214844 0 L 12.214844 -0.898438 C 9.109375 -1.726562 7.453125 -3.65625 7.453125 -11.523438 L 7.453125 -41.746094 Z M 39.949219 0.550781 "/></g></g></g><g clip-path="url(#f7ca35f216)"><g clip-path="url(#8901de5ca1)"><g clip-path="url(#3175e4f87e)"><g clip-path="url(#c3abc077e9)"><path fill="#fe3d2d" d="M 150.09375 142.148438 L 149.769531 142.347656 C 148.929688 142.921875 148.320312 143.839844 147.9375 145.109375 C 147.859375 145.535156 147.84375 145.980469 147.890625 146.449219 L 148.46875 149.617188 C 148.507812 150.082031 148.472656 150.457031 148.355469 150.75 C 148.078125 151.425781 147.589844 151.578125 146.886719 151.210938 C 146.722656 151.136719 146.535156 150.929688 146.324219 150.589844 L 145.746094 149.160156 C 145.089844 149.820312 144.617188 150.59375 144.320312 151.476562 C 144.175781 151.917969 144.070312 152.390625 144.015625 152.886719 C 143.957031 153.386719 143.941406 153.910156 143.976562 154.464844 L 144.058594 155.316406 C 144.5 157.144531 145.585938 158.402344 147.3125 159.085938 C 149.519531 159.800781 151.566406 159.636719 153.445312 158.601562 C 153.609375 158.542969 154.046875 158.230469 154.765625 157.664062 C 155.167969 157.261719 155.507812 156.855469 155.78125 156.441406 L 156.144531 155.820312 C 156.351562 155.40625 156.496094 154.984375 156.578125 154.554688 L 156.648438 153.914062 C 156.664062 153.480469 156.617188 153.046875 156.503906 152.605469 C 156.335938 152.050781 156.210938 151.71875 156.136719 151.601562 C 155.964844 151.246094 155.710938 150.835938 155.375 150.375 L 152.566406 147.027344 C 151.933594 146.257812 151.542969 145.757812 151.398438 145.523438 C 151.101562 145.03125 150.890625 144.59375 150.761719 144.21875 C 150.625 143.847656 150.480469 143.253906 150.320312 142.441406 C 150.246094 142.242188 150.171875 142.144531 150.09375 142.148438 " fill-opacity="1" fill-rule="nonzero"/></g></g></g></g><g clip-path="url(#39a205a383)"><g clip-path="url(#84eb9cc49c)"><g clip-path="url(#83bfb06cc1)"><g clip-path="url(#571b0707a4)"><path fill="#fec107" d="M 151.085938 148.820312 C 151.082031 148.820312 151.082031 148.820312 151.078125 148.824219 L 151.074219 148.824219 C 150.699219 149.132812 150.320312 149.9375 149.929688 151.238281 C 149.832031 151.65625 149.765625 152.148438 149.726562 152.714844 C 149.699219 153.167969 149.710938 153.714844 149.761719 154.359375 C 149.765625 154.449219 149.746094 154.535156 149.699219 154.617188 C 149.496094 154.726562 149.328125 154.785156 149.1875 154.796875 C 149.171875 154.796875 149.160156 154.796875 149.148438 154.796875 C 148.988281 154.808594 148.828125 154.789062 148.664062 154.738281 L 148.414062 154.632812 C 147.914062 154.375 147.386719 153.820312 146.839844 152.972656 C 146.632812 153.257812 146.46875 153.613281 146.347656 154.03125 C 146.21875 154.582031 146.152344 154.929688 146.152344 155.078125 C 146.125 155.335938 146.109375 155.609375 146.105469 155.902344 L 146.203125 156.800781 L 146.417969 157.648438 L 146.753906 158.433594 L 147.101562 159 L 147.105469 159 C 147.171875 159.03125 147.242188 159.058594 147.3125 159.085938 C 148.417969 159.445312 149.484375 159.582031 150.507812 159.5 C 151.527344 159.417969 152.507812 159.117188 153.445312 158.601562 C 153.550781 158.5625 153.777344 158.417969 154.121094 158.160156 C 154.171875 157.871094 154.195312 157.570312 154.195312 157.257812 C 154.199219 156.515625 154.039062 155.808594 153.710938 155.144531 C 153.589844 154.851562 153.449219 154.578125 153.292969 154.328125 L 152.085938 152.367188 C 151.859375 151.945312 151.6875 151.578125 151.574219 151.265625 C 151.457031 150.898438 151.390625 150.660156 151.375 150.550781 C 151.308594 150.3125 151.234375 149.765625 151.144531 148.910156 C 151.128906 148.847656 151.109375 148.820312 151.085938 148.820312 Z M 151.085938 148.820312 " fill-opacity="0.996" fill-rule="nonzero"/></g></g></g></g><g clip-path="url(#990d164331)"><g clip-path="url(#69c2a1f664)"><g clip-path="url(#54f27b6283)"><g clip-path="url(#6d5857dde2)"><path fill="#feeb3a" d="M 151.179688 154.050781 L 151.164062 154.054688 C 151.125 154.0625 151.097656 154.09375 151.085938 154.148438 C 151.007812 154.886719 150.929688 155.421875 150.847656 155.753906 C 150.78125 156.0625 150.636719 156.539062 150.410156 157.183594 L 150.242188 157.863281 C 150.234375 157.867188 150.230469 157.867188 150.222656 157.867188 C 150.195312 157.871094 150.15625 157.851562 150.113281 157.808594 C 149.421875 157.09375 148.894531 156.5625 148.53125 156.226562 C 148.421875 156.136719 148.351562 156.09375 148.316406 156.097656 C 148.316406 156.097656 148.3125 156.097656 148.3125 156.097656 C 148.304688 156.097656 148.300781 156.097656 148.292969 156.097656 C 148.199219 156.105469 148.140625 156.296875 148.113281 156.671875 C 148.074219 157.066406 148.078125 157.457031 148.136719 157.84375 C 148.253906 158.515625 148.410156 158.996094 148.59375 159.289062 C 148.617188 159.332031 148.640625 159.375 148.664062 159.417969 C 149.292969 159.519531 149.90625 159.546875 150.507812 159.5 C 151.304688 159.4375 152.082031 159.238281 152.828125 158.90625 L 152.832031 158.90625 C 152.835938 158.394531 152.785156 157.828125 152.671875 157.207031 C 152.609375 156.8125 152.535156 156.453125 152.449219 156.128906 L 152.316406 155.671875 C 152.222656 155.382812 152.117188 155.132812 152 154.917969 C 151.773438 154.484375 151.5 154.195312 151.179688 154.050781 Z M 151.179688 154.050781 " fill-opacity="0.996" fill-rule="nonzero"/></g></g></g></g></svg>